# xmcd
#
# Track frame offsets: 
#        300
#        15992
#        36480
#        56577
#        81032
#        103842
#        120812
#        142220
#        165970
#        190367
#        211805
#        228252
#        252092
#
# Disc length: 3775 seconds
#
# Revision: 3
# Processed by: cddbd v1.5.2PL0 Copyright (c) Steve Scherf et al.
# Submitted via: ExactAudioCopy v0.99pb4
#
DISCID=a50ebb0d
DTITLE=The Rolling Stones - Bridges To Babylon
DYEAR=1997
DGENRE=Rock
TTITLE0=Flip The Switch
TTITLE1=Anybody Seen My Baby?
TTITLE2=Low Down
TTITLE3=Already Over Me
TTITLE4=Gunface
TTITLE5=You Don't Have To Mean It
TTITLE6=Out Of Control
TTITLE7=Saint Of Me
TTITLE8=Might As Well Get Juiced
TTITLE9=Always Suffering
TTITLE10=Too Tight
TTITLE11=Thief In The Night
TTITLE12=How Can I Stop
EXTD=
EXTT0=
EXTT1=
EXTT2=
EXTT3=
EXTT4=
EXTT5=
EXTT6=
EXTT7=
EXTT8=
EXTT9=
EXTT10=
EXTT11=
EXTT12=
PLAYORDER=
